# xmcd
#
# Track frame offsets:
#	182
#	19802
#	35390
#
# Disc length: 602 seconds
#
# Revision: 0
# Processed by: cddbd v1.5.1PL2 Copyright (c) Steve Scherf et al.
# Submitted via: dBpowerAMP V4.0
#
DISCID=1a025803
DTITLE=Ted Hawkins - Strange Conversation CDS
DYEAR=1900
DGENRE=Blues
TTITLE0=Strange Conversation
TTITLE1=Green Eyed Girld
TTITLE2=Cold Bitter Tears
EXTD=Strange Conversation by Ted Hawkins [CDS]\n
EXTT0=
EXTT1=
EXTT2=
PLAYORDER=
